<svg width="20" height="20" viewBox="0 0 20 20" fill="none" xmlns="http://www.w3.org/2000/svg">
<g id="favorite_border">
<path id="Vector" d="M13.75 2.35413C12.3 2.35413 10.9083 3.02913 10 4.09579C9.09166 3.02913 7.7 2.35413 6.25 2.35413C3.68333 2.35413 1.66666 4.37079 1.66666 6.93746C1.66666 10.0875 4.5 12.6541 8.79166 16.5541L10 17.6458L11.2083 16.5458C15.5 12.6541 18.3333 10.0875 18.3333 6.93746C18.3333 4.37079 16.3167 2.35413 13.75 2.35413ZM10.0833 15.3125L10 15.3958L9.91666 15.3125C5.95 11.7208 3.33333 9.34579 3.33333 6.93746C3.33333 5.27079 4.58333 4.02079 6.25 4.02079C7.53333 4.02079 8.78333 4.84579 9.225 5.98746H10.7833C11.2167 4.84579 12.4667 4.02079 13.75 4.02079C15.4167 4.02079 16.6667 5.27079 16.6667 6.93746C16.6667 9.34579 14.05 11.7208 10.0833 15.3125Z" fill="#202020" fill-opacity="0.4"/>
</g>
</svg>
