<svg width="21" height="20" viewBox="0 0 21 20" fill="none" xmlns="http://www.w3.org/2000/svg">
<g id="search">
<path id="Vector" d="M13.2542 11.8792H12.5958L12.3625 11.6542C13.1792 10.7042 13.6708 9.47086 13.6708 8.12919C13.6708 5.13752 11.2458 2.71252 8.25417 2.71252C5.2625 2.71252 2.8375 5.13752 2.8375 8.12919C2.8375 11.1209 5.2625 13.5459 8.25417 13.5459C9.59584 13.5459 10.8292 13.0542 11.7792 12.2375L12.0042 12.4709V13.1292L16.1708 17.2875L17.4125 16.0459L13.2542 11.8792ZM8.25417 11.8792C6.17917 11.8792 4.50417 10.2042 4.50417 8.12919C4.50417 6.05419 6.17917 4.37919 8.25417 4.37919C10.3292 4.37919 12.0042 6.05419 12.0042 8.12919C12.0042 10.2042 10.3292 11.8792 8.25417 11.8792Z" fill="#202020" fill-opacity="0.4"/>
</g>
</svg>
