<svg width="21" height="20" viewBox="0 0 21 20" fill="none" xmlns="http://www.w3.org/2000/svg">
<g id="search">
<path id="Vector" d="M13.2541 11.8792H12.5957L12.3624 11.6542C13.1791 10.7042 13.6707 9.47086 13.6707 8.12919C13.6707 5.13752 11.2457 2.71252 8.25407 2.71252C5.2624 2.71252 2.8374 5.13752 2.8374 8.12919C2.8374 11.1209 5.2624 13.5459 8.25407 13.5459C9.59574 13.5459 10.8291 13.0542 11.7791 12.2375L12.0041 12.4709V13.1292L16.1707 17.2875L17.4124 16.0459L13.2541 11.8792ZM8.25407 11.8792C6.17907 11.8792 4.50407 10.2042 4.50407 8.12919C4.50407 6.05419 6.17907 4.37919 8.25407 4.37919C10.3291 4.37919 12.0041 6.05419 12.0041 8.12919C12.0041 10.2042 10.3291 11.8792 8.25407 11.8792Z" fill="white" fill-opacity="0.24"/>
</g>
</svg>
