<svg width="21" height="20" viewBox="0 0 21 20" fill="none" xmlns="http://www.w3.org/2000/svg">
<g id="gradient">
<path id="Vector" d="M10.0417 7.5H11.7083V9.16667H10.0417V7.5ZM8.375 9.16667H10.0417V10.8333H8.375V9.16667ZM11.7083 9.16667H13.375V10.8333H11.7083V9.16667ZM13.375 7.5H15.0417V9.16667H13.375V7.5ZM6.70833 7.5H8.375V9.16667H6.70833V7.5ZM16.7083 2.5H5.04167C4.125 2.5 3.375 3.25 3.375 4.16667V15.8333C3.375 16.75 4.125 17.5 5.04167 17.5H16.7083C17.625 17.5 18.375 16.75 18.375 15.8333V4.16667C18.375 3.25 17.625 2.5 16.7083 2.5ZM8.375 15H6.70833V13.3333H8.375V15ZM11.7083 15H10.0417V13.3333H11.7083V15ZM15.0417 15H13.375V13.3333H15.0417V15ZM16.7083 9.16667H15.0417V10.8333H16.7083V12.5H15.0417V10.8333H13.375V12.5H11.7083V10.8333H10.0417V12.5H8.375V10.8333H6.70833V12.5H5.04167V10.8333H6.70833V9.16667H5.04167V4.16667H16.7083V9.16667Z" fill="white" fill-opacity="0.24"/>
</g>
</svg>
