<svg width="21" height="20" viewBox="0 0 21 20" fill="none" xmlns="http://www.w3.org/2000/svg">
<g id="person">
<path id="Vector" d="M10.625 5.00004C11.5417 5.00004 12.2917 5.75004 12.2917 6.66671C12.2917 7.58337 11.5417 8.33337 10.625 8.33337C9.70834 8.33337 8.95834 7.58337 8.95834 6.66671C8.95834 5.75004 9.70834 5.00004 10.625 5.00004ZM10.625 13.3334C12.875 13.3334 15.4583 14.4084 15.625 15H5.62501C5.81668 14.4 8.38334 13.3334 10.625 13.3334ZM10.625 3.33337C8.78334 3.33337 7.29168 4.82504 7.29168 6.66671C7.29168 8.50837 8.78334 10 10.625 10C12.4667 10 13.9583 8.50837 13.9583 6.66671C13.9583 4.82504 12.4667 3.33337 10.625 3.33337ZM10.625 11.6667C8.40001 11.6667 3.95834 12.7834 3.95834 15V16.6667H17.2917V15C17.2917 12.7834 12.85 11.6667 10.625 11.6667Z" fill="#202020" fill-opacity="0.4"/>
</g>
</svg>
