<svg width="21" height="20" viewBox="0 0 21 20" fill="none" xmlns="http://www.w3.org/2000/svg">
<g id="person">
<path id="Vector" d="M10.6252 5.00004C11.5418 5.00004 12.2918 5.75004 12.2918 6.66671C12.2918 7.58337 11.5418 8.33337 10.6252 8.33337C9.7085 8.33337 8.9585 7.58337 8.9585 6.66671C8.9585 5.75004 9.7085 5.00004 10.6252 5.00004ZM10.6252 13.3334C12.8752 13.3334 15.4585 14.4084 15.6252 15H5.62516C5.81683 14.4 8.3835 13.3334 10.6252 13.3334ZM10.6252 3.33337C8.7835 3.33337 7.29183 4.82504 7.29183 6.66671C7.29183 8.50837 8.7835 10 10.6252 10C12.4668 10 13.9585 8.50837 13.9585 6.66671C13.9585 4.82504 12.4668 3.33337 10.6252 3.33337ZM10.6252 11.6667C8.40016 11.6667 3.9585 12.7834 3.9585 15V16.6667H17.2918V15C17.2918 12.7834 12.8502 11.6667 10.6252 11.6667Z" fill="white" fill-opacity="0.24"/>
</g>
</svg>
