<svg width="21" height="20" viewBox="0 0 21 20" fill="none" xmlns="http://www.w3.org/2000/svg">
<g id="person">
<path id="Vector" d="M10.625 5.00016C11.5417 5.00016 12.2917 5.75016 12.2917 6.66683C12.2917 7.5835 11.5417 8.3335 10.625 8.3335C9.70834 8.3335 8.95834 7.5835 8.95834 6.66683C8.95834 5.75016 9.70834 5.00016 10.625 5.00016ZM10.625 13.3335C12.875 13.3335 15.4583 14.4085 15.625 15.0002H5.62501C5.81668 14.4002 8.38334 13.3335 10.625 13.3335ZM10.625 3.3335C8.78334 3.3335 7.29168 4.82516 7.29168 6.66683C7.29168 8.5085 8.78334 10.0002 10.625 10.0002C12.4667 10.0002 13.9583 8.5085 13.9583 6.66683C13.9583 4.82516 12.4667 3.3335 10.625 3.3335ZM10.625 11.6668C8.40001 11.6668 3.95834 12.7835 3.95834 15.0002V16.6668H17.2917V15.0002C17.2917 12.7835 12.85 11.6668 10.625 11.6668Z" fill="#111111" fill-opacity="0.93"/>
</g>
</svg>
