<svg width="21" height="20" viewBox="0 0 21 20" fill="none" xmlns="http://www.w3.org/2000/svg">
<g id="person">
<path id="Vector" d="M10.6252 5.00016C11.5418 5.00016 12.2918 5.75016 12.2918 6.66683C12.2918 7.5835 11.5418 8.3335 10.6252 8.3335C9.7085 8.3335 8.9585 7.5835 8.9585 6.66683C8.9585 5.75016 9.7085 5.00016 10.6252 5.00016ZM10.6252 13.3335C12.8752 13.3335 15.4585 14.4085 15.6252 15.0002H5.62516C5.81683 14.4002 8.3835 13.3335 10.6252 13.3335ZM10.6252 3.3335C8.7835 3.3335 7.29183 4.82516 7.29183 6.66683C7.29183 8.5085 8.7835 10.0002 10.6252 10.0002C12.4668 10.0002 13.9585 8.5085 13.9585 6.66683C13.9585 4.82516 12.4668 3.3335 10.6252 3.3335ZM10.6252 11.6668C8.40016 11.6668 3.9585 12.7835 3.9585 15.0002V16.6668H17.2918V15.0002C17.2918 12.7835 12.8502 11.6668 10.6252 11.6668Z" fill="white"/>
</g>
</svg>
