<svg width="21" height="20" viewBox="0 0 21 20" fill="none" xmlns="http://www.w3.org/2000/svg">
<g id="search">
<path id="Vector" d="M13.2542 11.8791H12.5958L12.3625 11.6541C13.1792 10.7041 13.6708 9.47074 13.6708 8.12907C13.6708 5.1374 11.2458 2.7124 8.25417 2.7124C5.2625 2.7124 2.8375 5.1374 2.8375 8.12907C2.8375 11.1207 5.2625 13.5457 8.25417 13.5457C9.59584 13.5457 10.8292 13.0541 11.7792 12.2374L12.0042 12.4707V13.1291L16.1708 17.2874L17.4125 16.0457L13.2542 11.8791ZM8.25417 11.8791C6.17917 11.8791 4.50417 10.2041 4.50417 8.12907C4.50417 6.05407 6.17917 4.37907 8.25417 4.37907C10.3292 4.37907 12.0042 6.05407 12.0042 8.12907C12.0042 10.2041 10.3292 11.8791 8.25417 11.8791Z" fill="#111111" fill-opacity="0.93"/>
</g>
</svg>
