<svg width="21" height="20" viewBox="0 0 21 20" fill="none" xmlns="http://www.w3.org/2000/svg">
<g id="search">
<path id="Vector" d="M13.2541 11.8791H12.5957L12.3624 11.6541C13.1791 10.7041 13.6707 9.47074 13.6707 8.12907C13.6707 5.1374 11.2457 2.7124 8.25407 2.7124C5.2624 2.7124 2.8374 5.1374 2.8374 8.12907C2.8374 11.1207 5.2624 13.5457 8.25407 13.5457C9.59574 13.5457 10.8291 13.0541 11.7791 12.2374L12.0041 12.4707V13.1291L16.1707 17.2874L17.4124 16.0457L13.2541 11.8791ZM8.25407 11.8791C6.17907 11.8791 4.50407 10.2041 4.50407 8.12907C4.50407 6.05407 6.17907 4.37907 8.25407 4.37907C10.3291 4.37907 12.0041 6.05407 12.0041 8.12907C12.0041 10.2041 10.3291 11.8791 8.25407 11.8791Z" fill="white"/>
</g>
</svg>
